<svg width="26" height="25" viewBox="0 0 26 25" fill="none" xmlns="http://www.w3.org/2000/svg">
<path d="M12.6991 0C5.85472 0 0.306213 5.59644 0.306213 12.5C0.306213 19.4036 5.85472 25 12.6991 25C19.5436 25 25.0921 19.4036 25.0921 12.5C25.0848 5.59953 19.5406 0.00737654 12.6991 0ZM17.9183 12.8983C17.8325 13.0719 17.693 13.2126 17.5209 13.2991V13.3036L10.4392 16.875C10.0019 17.0954 9.47022 16.9166 9.25165 16.4754C9.18951 16.35 9.15751 16.2116 9.15829 16.0715V8.9286C9.15808 8.43547 9.55419 8.03557 10.0431 8.03531C10.1806 8.03525 10.3162 8.06748 10.4392 8.12948L17.5209 11.7009C17.9584 11.9209 18.1364 12.4569 17.9183 12.8983Z" fill="#5671F6"/>
</svg>
